Coordinates
version=1
nRows=49
nColumns=12
inDegrees=yes

Units are S.I. units (second, meters, Newtons, ...)
Angles are in degrees

endheader
time	SC_y	SC_z	SC_x	AC_y	AC_z	AC_x	GH_y	GH_z	GH_yy	EL_x	PS_y
       0.0              -47.65          19.97          82.12          42.45         0.7354         -6.107         -85.41          81.07           84.3          48.94          137.5
  0.001616              -47.65          19.97          82.11          42.45         0.7367         -6.107          -85.4          81.07          84.31          48.95          137.5
  0.003231              -47.65          19.97           82.1          42.45          0.738         -6.108          -85.4          81.07          84.32          48.96          137.4
  0.004847              -47.64          19.97          82.09          42.45         0.7394         -6.108          -85.4          81.06          84.34          48.96          137.4
  0.006463              -47.64          19.97          82.07          42.45          0.741         -6.108          -85.4          81.06          84.35          48.97          137.4
  0.008078              -47.63          19.98          82.06          42.45         0.7426         -6.108         -85.39          81.05          84.37          48.98          137.4
  0.009694              -47.63          19.98          82.04          42.45         0.7443         -6.108         -85.39          81.04          84.38          48.99          137.4
   0.01131              -47.62          19.98          82.03          42.45         0.7461         -6.108         -85.39          81.04           84.4           49.0          137.4
   0.01293              -47.61          19.98          82.01          42.46         0.7481         -6.108         -85.38          81.03          84.42          49.02          137.4
   0.01454              -47.61          19.98          81.99          42.46         0.7502         -6.109         -85.38          81.02          84.44          49.03          137.3
   0.01616               -47.6          19.98          81.97          42.46         0.7525         -6.109         -85.37          81.02          84.47          49.04          137.3
   0.01777              -47.59          19.99          81.95          42.46          0.755         -6.109         -85.37          81.01          84.49          49.06          137.3
   0.01939              -47.58          19.99          81.93          42.46         0.7576         -6.109         -85.36           81.0          84.52          49.07          137.3
     0.021              -47.57          19.99           81.9          42.46         0.7605          -6.11         -85.36          80.99          84.55          49.09          137.2
   0.02262              -47.56          19.99          81.88          42.46         0.7636          -6.11         -85.35          80.98          84.58          49.11          137.2
   0.02423              -47.55          19.99          81.85          42.46         0.7669          -6.11         -85.34          80.96          84.61          49.13          137.2
   0.02585              -47.54           20.0          81.82          42.46         0.7706          -6.11         -85.34          80.95          84.65          49.15          137.1
   0.02747              -47.53           20.0          81.78          42.47         0.7745         -6.111         -85.33          80.94          84.69          49.17          137.1
   0.02908              -47.51           20.0          81.75          42.47         0.7789         -6.111         -85.32          80.92          84.73           49.2          137.1
    0.0307               -47.5          20.01          81.71          42.47         0.7836         -6.112         -85.31          80.91          84.78          49.23          137.0
   0.03231              -47.48          20.01          81.66          42.47         0.7888         -6.112          -85.3          80.89          84.83          49.26          137.0
   0.03393              -47.46          20.02          81.61          42.47         0.7946         -6.113         -85.29          80.87          84.89          49.29          136.9
   0.03554              -47.44          20.02          81.56          42.48         0.8009         -6.113         -85.28          80.85          84.95          49.33          136.9
   0.03716              -47.42          20.03           81.5          42.48         0.8079         -6.114         -85.27          80.82          85.02          49.37          136.8
   0.03878              -47.39          20.03          81.43          42.48         0.8157         -6.114         -85.25           80.8           85.1          49.42          136.7
   0.04039              -47.36          20.04          81.35          42.49         0.8245         -6.115         -85.23          80.77          85.18          49.47          136.7
   0.04201              -47.33          20.05          81.27          42.49         0.8342         -6.116         -85.21          80.73          85.28          49.53          136.6
   0.04362               -47.3          20.05          81.18          42.49         0.8452         -6.117         -85.19          80.69          85.39          49.59          136.5
   0.04524              -47.26          20.06          81.07           42.5         0.8576         -6.118         -85.17          80.65          85.51          49.67          136.4
   0.04685              -47.21          20.07          80.95          42.51         0.8717         -6.119         -85.14           80.6          85.65          49.75          136.2
   0.04847              -47.16          20.09          80.81          42.51         0.8877         -6.121         -85.11          80.55          85.81          49.85          136.1
   0.05008               -47.1           20.1          80.65          42.52         0.9062         -6.122         -85.08          80.48           86.0          49.96          135.9
    0.0517              -47.03          20.12          80.47          42.53         0.9275         -6.124         -85.03          80.41          86.21          50.08          135.7
   0.05332              -46.95          20.13          80.26          42.54         0.9522         -6.126         -84.99          80.32          86.46          50.23          135.5
   0.05493              -46.85          20.16          80.01          42.55         0.9812         -6.129         -84.93          80.22          86.74           50.4          135.2
   0.05655              -46.74          20.18          79.71          42.56          1.015         -6.132         -84.87           80.1          87.09           50.6          134.9
   0.05816              -46.61          20.21          79.36          42.58          1.056         -6.135         -84.79          79.96          87.49          50.84          134.6
   0.05978              -46.45          20.25          78.95           42.6          1.104          -6.14         -84.69          79.79          87.97          51.13          134.1
   0.06139              -46.26          20.29          78.44          42.62          1.163         -6.145         -84.58          79.59          88.56          51.48          133.6
   0.06301              -46.03          20.35          77.82          42.65          1.235         -6.151         -84.44          79.34          89.28          51.91          133.0
   0.06463              -45.74          20.42          77.06          42.69          1.324         -6.159         -84.27          79.03          90.16          52.44          132.2
   0.06624              -45.38           20.5          76.11          42.74          1.434         -6.169         -84.06          78.65          91.26          53.09          131.2
   0.06786              -44.92          20.61          74.91          42.79          1.574         -6.181         -83.79          78.16          92.65          53.92          129.9
   0.06947              -44.34          20.74          73.39          42.86          1.751         -6.196         -83.44          77.55          94.41          54.97          128.3
   0.07109              -43.61          20.91          71.44          42.96          1.977         -6.216         -83.01          76.76          96.67          56.32          126.3
    0.0727              -42.66          21.13          68.94          43.08          2.268         -6.242         -82.45          75.75          99.57          58.05          123.6
   0.07432              -41.45          21.41          65.74          43.23           2.64         -6.274         -81.73          74.46          103.3          60.26          120.3
   0.07593              -39.92          21.77          61.73          43.42          3.107         -6.315         -80.83          72.83          107.9          63.03          116.1
   0.07755              -38.07           22.2          56.83          43.65          3.676         -6.365         -79.73          70.86          113.6          66.41          110.9
